<svg width="12" height="12" viewBox="0 0 12 12" fill="none" xmlns="http://www.w3.org/2000/svg">
<path d="M0 9.75C0 10.9922 1.00781 12 2.25 12H10.6875C11.4117 12 12 11.4117 12 10.6875V8.8125C12 8.08828 11.4117 7.5 10.6875 7.5H7.77422L9.82031 5.45391C10.3336 4.94062 10.3336 4.11094 9.82031 3.59766L8.49375 2.27344C7.98047 1.76016 7.15078 1.76016 6.6375 2.27344L4.5 4.41094V1.3125C4.5 0.588281 3.91172 0 3.1875 0H1.3125C0.588281 0 0 0.588281 0 1.3125V9.75ZM10.6875 11.25H4.02422L7.02422 8.25H10.6875C10.9992 8.25 11.25 8.50078 11.25 8.8125V10.6875C11.25 10.9992 10.9992 11.25 10.6875 11.25ZM9.29062 4.92422L4.5 9.71484V5.47266L7.16953 2.80312C7.38984 2.58281 7.74609 2.58281 7.96406 2.80312L9.29062 4.12969C9.51094 4.35 9.51094 4.70625 9.29062 4.92422ZM2.25 11.25C1.42266 11.25 0.75 10.5773 0.75 9.75V6.75H3.75V9.75C3.75 10.5773 3.07734 11.25 2.25 11.25ZM0.75 6V3.75H3.75V6H0.75ZM0.75 3V1.3125C0.75 1.00078 1.00078 0.75 1.3125 0.75H3.1875C3.49922 0.75 3.75 1.00078 3.75 1.3125V3H0.75ZM2.25 10.3125C2.39918 10.3125 2.54226 10.2532 2.64775 10.1477C2.75324 10.0423 2.8125 9.89918 2.8125 9.75C2.8125 9.60082 2.75324 9.45774 2.64775 9.35225C2.54226 9.24676 2.39918 9.1875 2.25 9.1875C2.10082 9.1875 1.95774 9.24676 1.85225 9.35225C1.74676 9.45774 1.6875 9.60082 1.6875 9.75C1.6875 9.89918 1.74676 10.0423 1.85225 10.1477C1.95774 10.2532 2.10082 10.3125 2.25 10.3125Z" fill="#ACACAC"/>
</svg>
