<svg width="12" height="12" viewBox="0 0 12 12" fill="none" xmlns="http://www.w3.org/2000/svg">
<path d="M6 0.75C6.41484 0.75 6.75 1.08516 6.75 1.5V4.5H1.5V1.5C1.5 1.08516 1.83516 0.75 2.25 0.75H6ZM6.75 5.25V11.25H1.5V5.25H6.75ZM0.75 1.5V11.25H0.375C0.16875 11.25 0 11.4187 0 11.625C0 11.8313 0.16875 12 0.375 12H0.75H1.5H6.75H7.5H7.875C8.08125 12 8.25 11.8313 8.25 11.625C8.25 11.4187 8.08125 11.25 7.875 11.25H7.5V6.75H7.875C8.49609 6.75 9 7.25391 9 7.875V9C9 9.82734 9.67266 10.5 10.5 10.5C11.3273 10.5 12 9.82734 12 9V3.68203C12 3.2625 11.8242 2.85938 11.5125 2.57578L9.62812 0.848438C9.47578 0.707813 9.23906 0.719531 9.09844 0.871875C8.95781 1.02422 8.96953 1.26094 9.12188 1.40156L9.75 1.97813V3.75C9.75 4.57734 10.4227 5.25 11.25 5.25V9C11.25 9.41484 10.9148 9.75 10.5 9.75C10.0852 9.75 9.75 9.41484 9.75 9V7.875C9.75 6.83906 8.91094 6 7.875 6H7.5V1.5C7.5 0.672656 6.82734 0 6 0H2.25C1.42266 0 0.75 0.672656 0.75 1.5ZM11.25 4.5C10.8352 4.5 10.5 4.16484 10.5 3.75V2.66484L11.0063 3.12891C11.1609 3.27187 11.25 3.47109 11.25 3.68203V4.5Z" fill="#ACACAC"/>
</svg>
