<svg width="20" height="12" viewBox="0 0 20 12" fill="none" xmlns="http://www.w3.org/2000/svg">
<path d="M12.675 0.5C12.675 0.775 12.4556 1 12.1875 1H9.75V2H10.2375H12.0839C12.4678 2 12.8456 2.11562 13.1655 2.33437L14.7316 3.40625C15.274 3.77813 15.6 4.40313 15.6 5.07188V10C15.6 11.1031 14.7255 12 13.65 12H7.76344C7.17234 12 6.61172 11.725 6.24 11.25L5.265 10H4.3875C3.58008 10 2.925 9.32812 2.925 8.5V6.5H2.68125H0.975V9C0.975 9.275 0.755625 9.5 0.4875 9.5C0.219375 9.5 0 9.275 0 9V3C0 2.725 0.219375 2.5 0.4875 2.5C0.755625 2.5 0.975 2.725 0.975 3V5.5H2.68125H2.925V3.5C2.925 2.67188 3.58008 2 4.3875 2H4.875H8.775V1H6.3375C6.06938 1 5.85 0.775 5.85 0.5C5.85 0.225 6.06938 0 6.3375 0H12.1875C12.4556 0 12.675 0.225 12.675 0.5ZM9.2625 3H4.875H4.3875C4.11938 3 3.9 3.225 3.9 3.5V8.5C3.9 8.775 4.11938 9 4.3875 9H5.265C5.56055 9 5.84086 9.1375 6.02672 9.375L7.00172 10.625C7.18758 10.8625 7.46789 11 7.76344 11H13.65C14.1893 11 14.625 10.5531 14.625 10V5.07188C14.625 4.7375 14.4635 4.425 14.1923 4.24062L12.6263 3.16875C12.4648 3.05937 12.2789 3 12.0839 3H10.2375H9.2625ZM5.11875 6C5.11875 5.80109 5.19579 5.61032 5.33293 5.46967C5.47006 5.32902 5.65606 5.25 5.85 5.25C6.04394 5.25 6.22994 5.32902 6.36707 5.46967C6.50421 5.61032 6.58125 5.80109 6.58125 6C6.58125 6.19891 6.50421 6.38968 6.36707 6.53033C6.22994 6.67098 6.04394 6.75 5.85 6.75C5.65606 6.75 5.47006 6.67098 5.33293 6.53033C5.19579 6.38968 5.11875 6.19891 5.11875 6ZM8.775 5.25C8.96894 5.25 9.15494 5.32902 9.29207 5.46967C9.42921 5.61032 9.50625 5.80109 9.50625 6C9.50625 6.19891 9.42921 6.38968 9.29207 6.53033C9.15494 6.67098 8.96894 6.75 8.775 6.75C8.58106 6.75 8.39506 6.67098 8.25793 6.53033C8.12079 6.38968 8.04375 6.19891 8.04375 6C8.04375 5.80109 8.12079 5.61032 8.25793 5.46967C8.39506 5.32902 8.58106 5.25 8.775 5.25ZM10.9688 6C10.9688 5.80109 11.0458 5.61032 11.1829 5.46967C11.3201 5.32902 11.5061 5.25 11.7 5.25C11.8939 5.25 12.0799 5.32902 12.2171 5.46967C12.3542 5.61032 12.4313 5.80109 12.4313 6C12.4313 6.19891 12.3542 6.38968 12.2171 6.53033C12.0799 6.67098 11.8939 6.75 11.7 6.75C11.5061 6.75 11.3201 6.67098 11.1829 6.53033C11.0458 6.38968 10.9688 6.19891 10.9688 6ZM17.55 5V11H18.525V5H17.55ZM16.575 5C16.575 4.44688 17.0107 4 17.55 4H18.525C19.0643 4 19.5 4.44688 19.5 5V11C19.5 11.5531 19.0643 12 18.525 12H17.55C17.0107 12 16.575 11.5531 16.575 11V5Z" fill="#ACACAC"/>
</svg>
