<svg width="11" height="12" viewBox="0 0 11 12" fill="none" xmlns="http://www.w3.org/2000/svg">
<path d="M9.99998 9.09199V6V2.90749C10.5805 2.70049 11 2.151 11 1.5C11 0.672492 10.327 0 9.49999 0C8.673 0 7.99999 0.672492 7.99999 1.5C7.99999 2.151 8.4195 2.70049 9 2.90749V5.49998H6V2.90749C6.58048 2.70049 6.99998 2.151 6.99998 1.5C6.99998 0.672492 6.32698 0 5.49998 0C4.67299 0 3.99998 0.672492 3.99998 1.5C3.99998 2.151 4.41949 2.70049 4.99999 2.90749V5.49998H1.99999V2.90749C2.58049 2.70049 3 2.151 3 1.5C3 0.672492 2.32699 0 1.5 0C0.673008 0 0 0.672492 0 1.5C0 2.151 0.419508 2.70049 1.00001 2.90749V6C1.00001 6.276 1.22351 6.49999 1.5 6.49999H4.99999V9.09199C4.41949 9.29899 3.99998 9.849 3.99998 10.5C3.99998 11.327 4.67299 12 5.49998 12C6.32698 12 6.99998 11.327 6.99998 10.5C6.99998 9.849 6.58048 9.29899 5.99998 9.09199V6.49999H8.99998V9.09199C8.41948 9.29899 7.99997 9.849 7.99997 10.5C7.99997 11.327 8.67298 12 9.49997 12C10.327 12 11 11.327 11 10.5C11 9.849 10.5805 9.29899 9.99998 9.09199Z" fill="#ACACAC"/>
</svg>
