<svg width="11" height="12" viewBox="0 0 11 12" fill="none" xmlns="http://www.w3.org/2000/svg">
<path d="M2.625 0C2.83125 0 3 0.16875 3 0.375V1.5H7.5V0.375C7.5 0.16875 7.66875 0 7.875 0C8.08125 0 8.25 0.16875 8.25 0.375V1.5H9C9.82734 1.5 10.5 2.17266 10.5 3V3.75V4.5V10.5C10.5 11.3273 9.82734 12 9 12H1.5C0.672656 12 0 11.3273 0 10.5V4.5V3.75V3C0 2.17266 0.672656 1.5 1.5 1.5H2.25V0.375C2.25 0.16875 2.41875 0 2.625 0ZM9.75 4.5H0.75V10.5C0.75 10.9148 1.08516 11.25 1.5 11.25H9C9.41484 11.25 9.75 10.9148 9.75 10.5V4.5ZM9 2.25H1.5C1.08516 2.25 0.75 2.58516 0.75 3V3.75H9.75V3C9.75 2.58516 9.41484 2.25 9 2.25Z" fill="#ACACAC"/>
</svg>
